{"title":"Flesh.Tx.2009.DVDRip.XviD-SPRiNTER-ExtraTorrent","uid":5494793,"size":740451586,"categoryP":"video","categoryS":"movies","magnet":"?xt=urn:btih:83eedb7a580f30e12b714b8254da7575ed04c4c7&amp;dn=Flesh.Tx.2009.DVDRip.XviD-SPRiNTER-ExtraTorrent&amp;tr=udp%3A%2F%2Ftracker.openbittorrent.com%3A80&amp;tr=udp%3A%2F%2Fopen.demonii.com%3A1337&amp;tr=udp%3A%2F%2Ftracker.coppersurfer.tk%3A6969&amp;tr=udp%3A%2F%2Fexodus.desync.com%3A6969","seeders":0,"leechers":2,"uploader":"SaM","files":52,"time":1271200642,"description":"extratorrent.com &lt;a href=&quot;\nhttp://extratorrent.com/torrent/2212942/&quot; rel=&quot;nofollow&quot; target=&quot;_NEW&quot;&gt;\nhttp://extratorrent.com/torrent/2212942/&lt;/a&gt;\n\nFlesh Tx 2009 DVDRip XviD-SPRiNTER\n\nFormat: AVI\nFormat/Info: Audio Video Interleave\nFile size: 699 MiB\nDuration: 1h 32mn\nOverall bit rate: 1 055 Kbps\nWriting application: Nandub v1.0rc2\nWriting library: Nandub build 1852/release\n\nVideo\nID: 0\nFormat: MPEG-4 Visual\nFormat profile: Advanced Simple@L5\nFormat settings, BVOP: No\nFormat settings, QPel: No\nFormat settings, GMC: No warppoints\nFormat settings, Matrix: Default (H.263)\nCodec ID: XVID\nCodec ID/Hint: XviD\nDuration: 1h 32mn\nBit rate: 904 Kbps\nWidth: 608 pixels\nHeight: 336 pixels\nDisplay aspect ratio: 16:9\nFrame rate: 23.976 fps\nResolution: 8 bits\nColorimetry: 4:2:0\nScan type: Progressive\nBits/(Pixel*Frame): 0.184\nStream size: 599 MiB (86%)\nWriting library: XviD 1.1.2 (UTC 2006-11-01)\n\nAudio\nID: 1\nFormat: MPEG Audio\nFormat version: Version 1\nFormat profile: Layer 3\nCodec ID: 55\nCodec ID/Hint: MP3\nDuration: 1h 32mn\nBit rate mode: Variable\nBit rate: 139 Kbps\nMinimum bit rate: 64.0 Kbps\nChannel(s): 2 channels\nSampling rate: 48.0 KHz\nStream size: 92.1 MiB (13%)\nAlignment: Aligned on interleaves\nInterleave, duration: 24 ms (0.58 video frame)\nInterleave, preload duration: 232 ms\nWriting library: LAME3.95\nEncoding settings: -m s -V 5 -q 3 -lowpass 17 --vbr-old -b 64\n","torrent":{"xt":"urn:btih:83eedb7a580f30e12b714b8254da7575ed04c4c7","amp;dn":"Flesh.Tx.2009.DVDRip.XviD-SPRiNTER-ExtraTorrent","amp;tr":["udp%3A%2F%2Ftracker.openbittorrent.com%3A80","udp%3A%2F%2Fopen.demonii.com%3A1337","udp%3A%2F%2Ftracker.coppersurfer.tk%3A6969","udp%3A%2F%2Fexodus.desync.com%3A6969"],"infoHash":"83eedb7a580f30e12b714b8254da7575ed04c4c7","infoHashBuffer":{"type":"Buffer","data":[131,238,219,122,88,15,48,225,43,113,75,130,84,218,117,117,237,4,196,199]},"announce":[],"urlList":[]}}